0
SECTION
2
HEADER
9
$INSUNITS
70
4
9
$ACADVER
1
AC1014
9
$HANDSEED
5
FFFF
0
ENDSEC
0
SECTION
2
TABLES
0
TABLE
2
VPORT
5
8
100
AcDbSymbolTable
0
ENDTAB
0
TABLE
2
LTYPE
5
5
100
AcDbSymbolTable
0
LTYPE
5
14
100
AcDbSymbolTableRecord
100
AcDbLinetypeTableRecord
2
BYBLOCK
70
0
0
LTYPE
5
15
100
AcDbSymbolTableRecord
100
AcDbLinetypeTableRecord
2
BYLAYER
70
0
0
ENDTAB
0
TABLE
2
LAYER
5
2
100
AcDbSymbolTable
70
2
0
LAYER
5
50
100
AcDbSymbolTableRecord
100
AcDbLayerTableRecord
2
0
70
0
6
CONTINUOUS
0
ENDTAB
0
TABLE
2
STYLE
5
3
100
AcDbSymbolTable
70
1
0
STYLE
5
11
100
AcDbSymbolTableRecord
100
AcDbTextStyleTableRecord
2
STANDARD
70
0
0
ENDTAB
0
TABLE
2
VIEW
5
6
100
AcDbSymbolTable
70
0
0
ENDTAB
0
TABLE
2
UCS
5
7
100
AcDbSymbolTable
70
0
0
ENDTAB
0
TABLE
2
APPID
5
9
100
AcDbSymbolTable
70
2
0
APPID
5
12
100
AcDbSymbolTableRecord
100
AcDbRegAppTableRecord
2
ACAD
70
0
0
ENDTAB
0
TABLE
2
DIMSTYLE
5
A
100
AcDbSymbolTable
70
1
0
ENDTAB
0
TABLE
2
BLOCK_RECORD
5
1
100
AcDbSymbolTable
70
1
0
BLOCK_RECORD
5
1F
100
AcDbSymbolTableRecord
100
AcDbBlockTableRecord
2
*MODEL_SPACE
0
BLOCK_RECORD
5
1B
100
AcDbSymbolTableRecord
100
AcDbBlockTableRecord
2
*PAPER_SPACE
0
ENDTAB
0
ENDSEC
0
SECTION
2
BLOCKS
0
BLOCK
5
20
100
AcDbEntity
100
AcDbBlockBegin
2
*MODEL_SPACE
0
ENDBLK
5
21
100
AcDbEntity
100
AcDbBlockEnd
0
BLOCK
5
1C
100
AcDbEntity
100
AcDbBlockBegin
2
*PAPER_SPACE
0
ENDBLK
5
1D
100
AcDbEntity
100
AcDbBlockEnd
0
ENDSEC
0
SECTION
2
ENTITIES
0
LWPOLYLINE
5
100
100
AcDbEntity
8
0
100
AcDbPolyline
90
4
70
1
43
0.0
10
-250.00000000000003
20
250.00000000000003
10
250.00000000000003
20
250.00000000000003
10
250.00000000000003
20
-250.00000000000003
10
-250.00000000000003
20
-250.00000000000003
0
LINE
5
101
100
AcDbEntity
8
0
100
AcDbLine
10
-250
20
-225
30
0
11
250.00000000000003
21
-225
31
0
0
LINE
5
102
100
AcDbEntity
8
0
100
AcDbLine
10
-250
20
-191.07142857142858
30
0
11
250.00000000000003
21
-191.07142857142858
31
0
0
LINE
5
103
100
AcDbEntity
8
0
100
AcDbLine
10
-250
20
-157.14285714285717
30
0
11
250.00000000000003
21
-157.14285714285717
31
0
0
LINE
5
104
100
AcDbEntity
8
0
100
AcDbLine
10
-250
20
-123.21428571428571
30
0
11
250.00000000000003
21
-123.21428571428571
31
0
0
LINE
5
105
100
AcDbEntity
8
0
100
AcDbLine
10
-250
20
-89.285714285714292
30
0
11
250.00000000000003
21
-89.285714285714292
31
0
0
LINE
5
106
100
AcDbEntity
8
0
100
AcDbLine
10
-250
20
-55.357142857142847
30
0
11
250.00000000000003
21
-55.357142857142847
31
0
0
LINE
5
107
100
AcDbEntity
8
0
100
AcDbLine
10
-250
20
-21.428571428571423
30
0
11
250.00000000000003
21
-21.428571428571423
31
0
0
LINE
5
108
100
AcDbEntity
8
0
100
AcDbLine
10
-250
20
12.5
30
0
11
250.00000000000003
21
12.5
31
0
0
LINE
5
109
100
AcDbEntity
8
0
100
AcDbLine
10
-250
20
46.428571428571423
30
0
11
250.00000000000003
21
46.428571428571423
31
0
0
LINE
5
110
100
AcDbEntity
8
0
100
AcDbLine
10
-250
20
80.357142857142847
30
0
11
250.00000000000003
21
80.357142857142847
31
0
0
LINE
5
111
100
AcDbEntity
8
0
100
AcDbLine
10
-250
20
114.28571428571431
30
0
11
250.00000000000003
21
114.28571428571431
31
0
0
LINE
5
112
100
AcDbEntity
8
0
100
AcDbLine
10
-250
20
148.21428571428569
30
0
11
250.00000000000003
21
148.21428571428569
31
0
0
LINE
5
113
100
AcDbEntity
8
0
100
AcDbLine
10
-250
20
182.14285714285717
30
0
11
250.00000000000003
21
182.14285714285717
31
0
0
LINE
5
114
100
AcDbEntity
8
0
100
AcDbLine
10
-250
20
216.07142857142856
30
0
11
250.00000000000003
21
216.07142857142856
31
0
0
LINE
5
115
100
AcDbEntity
8
0
100
AcDbLine
10
-250
20
250
30
0
11
250.00000000000003
21
250
31
0
0
LINE
5
116
100
AcDbEntity
8
0
100
AcDbLine
10
-225
20
250
30
0
11
-225
21
-250.00000000000003
31
0
0
LINE
5
117
100
AcDbEntity
8
0
100
AcDbLine
10
-191.07142857142858
20
250
30
0
11
-191.07142857142858
21
-250.00000000000003
31
0
0
LINE
5
118
100
AcDbEntity
8
0
100
AcDbLine
10
-157.14285714285717
20
250
30
0
11
-157.14285714285717
21
-250.00000000000003
31
0
0
LINE
5
119
100
AcDbEntity
8
0
100
AcDbLine
10
-123.21428571428571
20
250
30
0
11
-123.21428571428571
21
-250.00000000000003
31
0
0
LINE
5
120
100
AcDbEntity
8
0
100
AcDbLine
10
-89.285714285714292
20
250
30
0
11
-89.285714285714292
21
-250.00000000000003
31
0
0
LINE
5
121
100
AcDbEntity
8
0
100
AcDbLine
10
-55.357142857142847
20
250
30
0
11
-55.357142857142847
21
-250.00000000000003
31
0
0
LINE
5
122
100
AcDbEntity
8
0
100
AcDbLine
10
-21.428571428571423
20
250
30
0
11
-21.428571428571423
21
-250.00000000000003
31
0
0
LINE
5
123
100
AcDbEntity
8
0
100
AcDbLine
10
12.5
20
250
30
0
11
12.5
21
-250.00000000000003
31
0
0
LINE
5
124
100
AcDbEntity
8
0
100
AcDbLine
10
46.428571428571423
20
250
30
0
11
46.428571428571423
21
-250.00000000000003
31
0
0
LINE
5
125
100
AcDbEntity
8
0
100
AcDbLine
10
80.357142857142847
20
250
30
0
11
80.357142857142847
21
-250.00000000000003
31
0
0
LINE
5
126
100
AcDbEntity
8
0
100
AcDbLine
10
114.28571428571431
20
250
30
0
11
114.28571428571431
21
-250.00000000000003
31
0
0
LINE
5
127
100
AcDbEntity
8
0
100
AcDbLine
10
148.21428571428569
20
250
30
0
11
148.21428571428569
21
-250.00000000000003
31
0
0
LINE
5
128
100
AcDbEntity
8
0
100
AcDbLine
10
182.14285714285717
20
250
30
0
11
182.14285714285717
21
-250.00000000000003
31
0
0
LINE
5
129
100
AcDbEntity
8
0
100
AcDbLine
10
216.07142857142856
20
250
30
0
11
216.07142857142856
21
-250.00000000000003
31
0
0
LINE
5
130
100
AcDbEntity
8
0
100
AcDbLine
10
250
20
250
30
0
11
250
21
-250.00000000000003
31
0
0
ENDSEC
0
SECTION
2
OBJECTS
0
DICTIONARY
5
C
100
AcDbDictionary
3
ACAD_GROUP
350
D
3
ACAD_MLINESTYLE
350
17
0
DICTIONARY
5
D
100
AcDbDictionary
0
DICTIONARY
5
1A
330
C
100
AcDbDictionary
0
DICTIONARY
5
17
100
AcDbDictionary
0
ENDSEC
0
EOF
